<?xml version="1.0" encoding="utf-8"?>
<!-- Generator: Adobe Illustrator 16.0.0, SVG Export Plug-In . SVG Version: 6.00 Build 0)  -->
<!DOCTYPE svg PUBLIC "-//W3C//DTD SVG 1.1//EN" "http://www.w3.org/Graphics/SVG/1.1/DTD/svg11.dtd">
<svg version="1.1" id="圖層_1" xmlns="http://www.w3.org/2000/svg" xmlns:xlink="http://www.w3.org/1999/xlink" x="0px" y="0px"
	 width="500px" height="500px" viewBox="0 0 500 500" enable-background="new 0 0 500 500" xml:space="preserve">
<g>
	<g>
		<path fill="none" stroke="#FF6347" stroke-width="31.5979" stroke-linecap="round" stroke-miterlimit="10" d="M248.523,385.335
			C151.82,384.514,74.105,305.456,74.91,208.752c0.79-96.703,79.833-174.434,176.519-173.629
			c96.702,0.79,174.479,79.833,173.661,176.535c-0.379,45.604-18.167,87.005-46.945,117.903"/>
		
			<line fill="none" stroke="#FF6347" stroke-width="31.5979" stroke-linecap="round" stroke-miterlimit="10" x1="359.82" y1="360.678" x2="281.094" y2="409.976"/>
		
			<line fill="none" stroke="#FF6347" stroke-width="31.5979" stroke-linecap="round" stroke-miterlimit="10" x1="378.238" y1="405.176" x2="285.817" y2="414.748"/>
		
			<line fill="none" stroke="#FF6347" stroke-width="31.5979" stroke-linecap="round" stroke-miterlimit="10" x1="382.313" y1="457.112" x2="332.021" y2="464.883"/>
		
			<line fill="none" stroke="#FF6347" stroke-width="31.5979" stroke-linecap="round" stroke-miterlimit="10" x1="377.922" y1="405.176" x2="329.129" y2="463.998"/>
	</g>
	<g>
		<polygon fill="#231815" points="120.751,234.587 92.201,234.587 92.201,188.334 106.001,188.334 106.001,221.687 120.751,221.687 
					"/>
	</g>
	<g>
		<rect x="131.45" y="188.334" fill="#231815" width="13.801" height="46.252"/>
	</g>
	<g>
		<path fill="#231815" d="M179.351,234.987c-16.701,0-22.651-12.011-22.651-23.251c0-14.236,9.484-23.801,23.601-23.801
			c4.223,0,8.12,0.737,10.689,2.022l2.935,1.468l-3.395,12.407l-4.254-1.891c-1.158-0.515-2.883-1.105-5.976-1.105
			c-6.216,0-9.501,3.683-9.501,10.651c0,4.015,1.137,10.751,8.751,10.751c0.405,0,0.771-0.011,1.1-0.029v-3.572h-6.6v-12.65h20.201
			v25.771l-2.529,1C188.994,233.835,184.312,234.987,179.351,234.987z"/>
	</g>
	<g>
		<polygon fill="#231815" points="241.952,234.587 228.151,234.587 228.151,217.186 220.55,217.186 220.55,234.587 206.75,234.587 
			206.75,188.285 220.55,188.285 220.55,204.085 228.151,204.085 228.151,188.285 241.952,188.285 		"/>
	</g>
	<g>
		<polygon fill="#231815" points="275.85,234.587 262.049,234.587 262.049,201.285 251.748,201.285 251.748,188.334 
			286.201,188.334 286.201,201.285 275.85,201.285 		"/>
	</g>
	<g>
		<rect x="296.049" y="188.334" fill="#231815" width="13.801" height="46.252"/>
	</g>
	<polygon fill="#231815" points="358.75,234.587 346.557,234.587 336.697,217.026 336.697,234.587 323.348,234.587 323.348,188.334 
		335.982,188.334 345.398,205.001 345.398,188.334 358.75,188.334 	"/>
	<g>
		<path fill="#231815" d="M392.898,234.987c-16.7,0-22.65-12.011-22.65-23.251c0-14.236,9.484-23.801,23.602-23.801
			c4.223,0,8.119,0.737,10.689,2.022l2.936,1.468l-3.396,12.406l-4.253-1.89c-1.158-0.515-2.885-1.105-5.976-1.105
			c-6.216,0-9.502,3.683-9.502,10.651c0,4.015,1.137,10.751,8.752,10.751c0.405,0,0.771-0.011,1.1-0.029v-3.572h-6.602v-12.65
			h20.201v25.771l-2.529,1C402.541,233.835,397.859,234.987,392.898,234.987z"/>
	</g>
</g>
</svg>
