<?xml version="1.0" encoding="utf-8"?>
<!-- Generator: Adobe Illustrator 16.0.0, SVG Export Plug-In . SVG Version: 6.00 Build 0)  -->
<!DOCTYPE svg PUBLIC "-//W3C//DTD SVG 1.1//EN" "http://www.w3.org/Graphics/SVG/1.1/DTD/svg11.dtd">
<svg version="1.1" id="圖層_1" xmlns="http://www.w3.org/2000/svg" xmlns:xlink="http://www.w3.org/1999/xlink" x="0px" y="0px"
	 width="500px" height="500px" viewBox="0 0 500 500" enable-background="new 0 0 500 500" xml:space="preserve">
<g>
	<g>
		<path fill="#FFF100" d="M307.544,243.079c0,44.217-40.972,95.322-40.972,95.322s-41-51.105-41-95.322
			c0-62.247,41-95.321,41-95.321S307.544,179.479,307.544,243.079z"/>
		
			<line fill="none" stroke="#FFFFFF" stroke-width="7.117" stroke-miterlimit="10" x1="266.558" y1="147.758" x2="266.558" y2="338.401"/>
		<polyline fill="none" stroke="#FFFFFF" stroke-width="7.117" stroke-miterlimit="10" points="296.188,228.635 266.558,247.135 
			266.558,214.162 287.72,200.955 		"/>
		<polyline fill="none" stroke="#FFFFFF" stroke-width="7.117" stroke-miterlimit="10" points="245.425,200.955 266.587,214.162 
			266.558,280.465 297.696,261.282 		"/>
		<polyline fill="none" stroke="#FFFFFF" stroke-width="7.117" stroke-miterlimit="10" points="235.449,261.282 266.587,280.465 
			266.587,247.135 236.958,228.635 		"/>
	</g>
	<g>
		<path fill="none" stroke="#000000" stroke-width="28.4681" stroke-linecap="round" stroke-miterlimit="10" d="M248.669,371.93
			c-87.124-0.74-157.142-71.968-156.416-159.091c0.712-87.125,71.925-157.156,159.034-156.431
			c87.125,0.712,157.2,71.925,156.459,159.049c-0.34,41.086-16.364,78.387-42.295,106.222"/>
		
			<polyline fill="none" stroke="#000000" stroke-width="28.4681" stroke-linecap="round" stroke-linejoin="round" stroke-miterlimit="10" points="
			369.208,436.598 323.896,443.598 321.292,442.801 365.252,389.805 365.536,389.805 282.27,398.429 278.014,394.13 
			348.942,349.714 		"/>
	</g>
</g>
</svg>
