<?xml version="1.0" encoding="utf-8"?>
<!-- Generator: Adobe Illustrator 16.0.0, SVG Export Plug-In . SVG Version: 6.00 Build 0)  -->
<!DOCTYPE svg PUBLIC "-//W3C//DTD SVG 1.1//EN" "http://www.w3.org/Graphics/SVG/1.1/DTD/svg11.dtd">
<svg version="1.1" id="圖層_1" xmlns="http://www.w3.org/2000/svg" xmlns:xlink="http://www.w3.org/1999/xlink" x="0px" y="0px"
	 width="200px" height="200px" viewBox="0 0 200 200" enable-background="new 0 0 200 200" xml:space="preserve">
<path fill="#FFDA00" d="M100.004,2.241c-43.538,0-78.958,35.418-78.958,78.954c0,18.124,12.566,42.905,37.349,73.657
	c17.924,22.24,35.563,39.313,36.304,40.028l1.099,1.06l1.42,0.556c1.011,0.396,1.946,0.562,2.807,0.562
	c3.077,0,5.209-2.105,6.485-3.365c0.768-0.756,1.885-1.868,3.291-3.295c2.549-2.584,6.584-6.744,11.34-11.896
	c0.547-0.59,0.979-1.244,1.305-1.937c1.109-1.326,1.779-3.031,1.779-4.896c0-4.213-3.416-7.628-7.629-7.628H86.265
	c-4.098-4.554-8.393-9.508-12.674-14.694h32.302c4.213,0,7.629-3.414,7.629-7.63c0-4.214-3.416-7.631-7.629-7.631H62.486
	c-0.276,0-0.548,0.019-0.815,0.047c-13.978-18.897-25.365-38.757-25.365-52.935c0-35.12,28.575-63.694,63.699-63.694
	c35.121,0,63.69,28.574,63.69,63.694c0,8.164-4.055,23.504-23.371,50.23c-2.471,3.415-1.701,8.186,1.714,10.654
	c3.415,2.467,8.187,1.698,10.653-1.715c17.43-24.112,26.264-44.02,26.264-59.17C178.954,37.659,143.538,2.241,100.004,2.241z"/>
</svg>
